<svg width="122" height="82" xmlns="http://www.w3.org/2000/svg">
    <g fill="none" fill-rule="evenodd">
        <path fill="#060707" fill-rule="nonzero" d="M0 0h122v82H0z"/>
        <path fill="#DB161B" fill-rule="nonzero" d="M1 1h120v80H1z"/>
        <path fill="#FFF" fill-rule="nonzero" d="M32 1h89v26H32z"/>
        <path fill="green" fill-rule="nonzero" d="M32 55h89v26H32z"/>
        <g transform="translate(7 4)" stroke="#DB161B" stroke-width=".1">
            <g transform="translate(.44 7.31)" fill="#FFF">
                <rect x=".08" y=".06" width="3.74" height="2.07" rx="1.04"/>
                <rect x=".18" y=".15" width="3.55" height="1.9" rx=".95"/>
                <path d="M1.83.67H2v.08l.15.08.11-.1.14.08-.13.08.04.12h.16v.14h-.13l-.07.09.15.1-.11.1-.13-.1-.18.04.01.14-.2.01-.02-.13-.16-.07-.09.1-.14-.08.08-.1-.1-.07h-.13l-.01-.2.14.01.1-.1-.12-.1.15-.1.1.08.18-.02z"/>
                <circle cx="1.91" cy="1.1" r="1"/>
                <path d="M.66.24L.37.49M.85.24L.56.49m.48-.25L.75.49m.48-.25L.95.49m.47-.25l-.28.25m.48-.25l-.3.25m.49-.25l-.29.25M2 .24l-.3.25m.5-.25l-.3.25m.48-.25L2.1.49m.47-.25L2.3.49m.48-.25l-.3.25M2 .24l-.3.25M2.96.24l-.29.25m.48-.25l-.29.25m.48-.25l-.29.25m.48-.25l-.28.25m0-.25l.28.25M3.05.24l.3.25m-.5-.25l.29.25M2.67.24l.29.25M2.48.24l.29.25M2.29.24l.28.25M2.1.24l.28.25M1.9.24l.3.25M1.7.24l.3.25M1.52.24l.29.25M1.33.24l.29.25M1.14.24l.28.25M1.9.24l.3.25M.94.24l.28.25M.75.24l.3.25M.55.24l.29.25M.37.24l.29.25m0 1.21l-.29.26m.48-.26l-.29.26m.48-.26l-.29.26m.48-.26l-.28.26m.47-.26l-.28.26m.48-.26l-.3.26m.49-.26l-.29.26M2 1.7l-.29.26m.48-.26l-.29.26m.48-.26l-.28.26m.47-.26l-.28.26m.48-.26l-.3.26M2 1.7l-.29.26m1.25-.26l-.29.26m.48-.26l-.29.26m.48-.26l-.29.26m.48-.26l-.28.26m0-.26l.28.26m-.48-.26l.3.26m-.49-.26l.29.26m-.48-.26l.29.26m-.48-.26l.29.26m-.48-.26l.28.26M2.1 1.7l.28.26M1.9 1.7l.3.26m-.5-.26l.29.26m-.48-.26l.29.26m-.48-.26l.29.26m-.48-.26l.28.26m.48-.26l.3.26M.94 1.7l.28.26M.75 1.7l.3.26m-.5-.26l.29.26M.37 1.7l.29.26"/>
            </g>
            <g transform="matrix(-1 0 0 1 17.63 7.31)" fill="#FFF">
                <rect x=".08" y=".06" width="3.74" height="2.07" rx="1.04"/>
                <rect x=".18" y=".15" width="3.55" height="1.9" rx=".95"/>
                <path d="M1.83.67H2v.08l.15.08.11-.1.14.08-.13.08.04.12h.16v.14h-.13l-.07.09.15.1-.11.1-.13-.1-.18.04.01.14-.2.01-.02-.13-.16-.07-.09.1-.14-.08.08-.1-.1-.07h-.13l-.01-.2.14.01.1-.1-.12-.1.15-.1.1.08.18-.02z"/>
                <circle cx="1.91" cy="1.1" r="1"/>
                <path d="M.66.24L.37.49M.85.24L.56.49m.48-.25L.75.49m.48-.25L.95.49m.47-.25l-.28.25m.48-.25l-.3.25m.49-.25l-.29.25M2 .24l-.3.25m.5-.25l-.3.25m.48-.25L2.1.49m.47-.25L2.3.49m.48-.25l-.3.25M2 .24l-.3.25M2.96.24l-.29.25m.48-.25l-.29.25m.48-.25l-.29.25m.48-.25l-.28.25m0-.25l.28.25M3.05.24l.3.25m-.5-.25l.29.25M2.67.24l.29.25M2.48.24l.29.25M2.29.24l.28.25M2.1.24l.28.25M1.9.24l.3.25M1.7.24l.3.25M1.52.24l.29.25M1.33.24l.29.25M1.14.24l.28.25M1.9.24l.3.25M.94.24l.28.25M.75.24l.3.25M.55.24l.29.25M.37.24l.29.25m0 1.21l-.29.26m.48-.26l-.29.26m.48-.26l-.29.26m.48-.26l-.28.26m.47-.26l-.28.26m.48-.26l-.3.26m.49-.26l-.29.26M2 1.7l-.29.26m.48-.26l-.29.26m.48-.26l-.28.26m.47-.26l-.28.26m.48-.26l-.3.26M2 1.7l-.29.26m1.25-.26l-.29.26m.48-.26l-.29.26m.48-.26l-.29.26m.48-.26l-.28.26m0-.26l.28.26m-.48-.26l.3.26m-.49-.26l.29.26m-.48-.26l.29.26m-.48-.26l.29.26m-.48-.26l.28.26M2.1 1.7l.28.26M1.9 1.7l.3.26m-.5-.26l.29.26m-.48-.26l.29.26m-.48-.26l.29.26m-.48-.26l.28.26m.48-.26l.3.26M.94 1.7l.28.26M.75 1.7l.3.26m-.5-.26l.29.26M.37 1.7l.29.26"/>
            </g>
            <g transform="translate(.44 .44)">
                <path d="M6.5 11.37c-4.92 4.72-7.03 5.32-6.04 5.7.99.38 4.16-2.06 7.46-5.3 3.3-3.24 5.33-6.12 4.34-6.5-.99-.38-.51 1.07-5.76 6.1z" fill="#FFF"/>
                <path d="M2.36 14.8l1.72.45C2.46 16.75.63 17.38.12 17.1c-.5-.26.92-.89 2.24-2.3z" fill="#FFF"/>
                <path d="M2.36 14.98l1.42.36C2.2 16.79.63 17.2.23 17.02c-.41-.17.84-.67 2.13-2.04z" fill="#FFF"/>
                <path d="M7.66 11.16l-.03.16v.15c-.02.04-.02.07-.07.08a.2.2 0 01-.1.08.57.57 0 01-.13.07.26.26 0 01-.15 0l-.11-.07-.03-.12.03.14c0 .06-.03.08-.05.12m.17.12h-.01c.03.02.02 0-.05-.03a.62.62 0 00-.16-.04h-.18c-.07 0-.12 0-.16.02l-.13.08a.2.2 0 00-.08.08c-.03.03-.05.08-.09.1 0 .05-.04.05-.06.1.06 0 .1 0 .14.03l-.06-.04c-.04-.01-.05-.02-.12-.02-.05-.02-.09.01-.15.02a.15.15 0 01-.09.02m.52.23c-.02 0-.14.02-.19 0a.19.19 0 01-.11-.07c-.02-.03 0 .05 0 .08 0 .07-.03.07-.06.11l-.12.07a.41.41 0 01-.11.05l-.12.06c-.04.02-.03.06-.06.1 0 .05.02.08.05.1a.3.3 0 00.08.1c.03.06.06.08-.01.1h-.12m-.02.07l-.2-.05h-.17c-.07 0-.08.02-.14.04a.31.31 0 01-.11.08.58.58 0 00-.1.12.38.38 0 00-.03.14c0 .06.02.07.03.13.01.05.03.1.07.13 0 .02.01.02.03.02m.02.15l-.04.05c-.04.04-.05.04-.1.04-.06 0-.06-.02-.1-.03l-.06-.09-.04-.08-.06-.07-.04-.01c.05 0 .05.02.09.05l.04.08.02.11c0 .05 0 .08-.02.12l-.06.06a.45.45 0 00-.06.07l-.08.05-.1.04c-.06 0-.07-.02-.11-.04l-.09-.06a.29.29 0 01-.06-.07c-.05 0-.08 0-.11.02a.24.24 0 00-.06.06c-.02 0-.04.03-.06.04m.1.02l.1.05c.01.04.04.07.04.12l.01.15c0 .06-.03.1-.05.14l-.1.06a1 1 0 01-.15.02h-.13a.33.33 0 01-.12-.05l-.11-.06-.1-.1-.06-.1.06.13c.02.05.04.07.04.12.02.05.01.1.01.15 0 .04 0 .1-.02.13v.04m-1.06.17v.01c0-.04 0-.02.02.07.03.03.11.04.18.03.06-.04.06-.08.16-.1.1 0 .14.04.2.07.07.02.1.04.14.1.02.06.04.1-.03.11a.47.47 0 01-.2.07c-.08 0-.14-.01-.18.03-.06.05-.05.08-.05.17-.02.03-.03.11-.04.14a.35.35 0 01-.16.03l-.06-.18c0-.06-.01-.14-.05-.18a.46.46 0 00-.12-.1.23.23 0 00-.11-.07c.07.03.08.07.09.14-.06.03-.08.05-.18.05-.1 0-.12-.03-.16-.08 0 .08-.04.1-.06.17l-.09.16c.02.08.05.08.06.17.02.06.02.12.07.16.02.02.04.03.09.03a.44.44 0 01-.23-.05l-.15-.1a.74.74 0 00-.21-.09c-.08 0-.14 0-.18.04a.28.28 0 00-.1.15c-.03.08-.03.14 0 .2.04.05.05.07 0 .15-.03.05-.1.05-.19.08a.7.7 0 01-.18-.04"/>
                <path d="M12.13 7.1C14.3 3.4 15.76.24 15.37.06c-.4-.18-2.5 2.68-4.69 6.39l1.45.65z" fill="#FFF"/>
                <path d="M11.98 7.04C14.1 3.46 15.54.44 15.23.3c-.32-.14-2.3 2.64-4.4 6.21" fill="#FFF"/>
                <path d="M11.62 5.17l-.8 1.34 1.16.53.8-1.35-1.16-.52z" fill="#FFF"/>
                <path d="M11.72 5.32c-.26.41-.44.73-.7 1.18l.86.39.7-1.18-.86-.4z" fill="#FFF"/>
                <path fill="#FFF" fill-rule="nonzero" d="M12.32 5.82l-.56-.31-.48.88.56.3z"/>
                <path d="M12.35 5.8l-1.1.6m.58.27l-.06-1.13m3.19-4.16l-.58-.26" fill="#FFF"/>
                <circle fill="#DB161B" fill-rule="nonzero" transform="scale(-1 1) rotate(14.41 0 -116.87)" cx="14.87" cy=".86" r="1"/>
            </g>
            <g transform="matrix(-1 0 0 1 18.06 .44)">
                <path d="M6.5 11.37c-4.92 4.72-7.03 5.32-6.04 5.7.99.38 4.16-2.06 7.46-5.3 3.3-3.24 5.33-6.12 4.34-6.5-.99-.38-.51 1.07-5.76 6.1z" fill="#FFF"/>
                <path d="M2.36 14.8l1.72.45C2.46 16.75.63 17.38.12 17.1c-.5-.26.92-.89 2.24-2.3z" fill="#FFF"/>
                <path d="M2.36 14.98l1.42.36C2.2 16.79.63 17.2.23 17.02c-.41-.17.84-.67 2.13-2.04z" fill="#FFF"/>
                <path d="M7.66 11.16l-.03.16v.15c-.02.04-.02.07-.07.08a.2.2 0 01-.1.08.57.57 0 01-.13.07.26.26 0 01-.15 0l-.11-.07-.03-.12.03.14c0 .06-.03.08-.05.12m.17.12h-.01c.03.02.02 0-.05-.03a.62.62 0 00-.16-.04h-.18c-.07 0-.12 0-.16.02l-.13.08a.2.2 0 00-.08.08c-.03.03-.05.08-.09.1 0 .05-.04.05-.06.1.06 0 .1 0 .14.03l-.06-.04c-.04-.01-.05-.02-.12-.02-.05-.02-.09.01-.15.02a.15.15 0 01-.09.02m.52.23c-.02 0-.14.02-.19 0a.19.19 0 01-.11-.07c-.02-.03 0 .05 0 .08 0 .07-.03.07-.06.11l-.12.07a.41.41 0 01-.11.05l-.12.06c-.04.02-.03.06-.06.1 0 .05.02.08.05.1a.3.3 0 00.08.1c.03.06.06.08-.01.1h-.12m-.02.07l-.2-.05h-.17c-.07 0-.08.02-.14.04a.31.31 0 01-.11.08.58.58 0 00-.1.12.38.38 0 00-.03.14c0 .06.02.07.03.13.01.05.03.1.07.13 0 .02.01.02.03.02m.02.15l-.04.05c-.04.04-.05.04-.1.04-.06 0-.06-.02-.1-.03l-.06-.09-.04-.08-.06-.07-.04-.01c.05 0 .05.02.09.05l.04.08.02.11c0 .05 0 .08-.02.12l-.06.06a.45.45 0 00-.06.07l-.08.05-.1.04c-.06 0-.07-.02-.11-.04l-.09-.06a.29.29 0 01-.06-.07c-.05 0-.08 0-.11.02a.24.24 0 00-.06.06c-.02 0-.04.03-.06.04m.1.02l.1.05c.01.04.04.07.04.12l.01.15c0 .06-.03.1-.05.14l-.1.06a1 1 0 01-.15.02h-.13a.33.33 0 01-.12-.05l-.11-.06-.1-.1-.06-.1.06.13c.02.05.04.07.04.12.02.05.01.1.01.15 0 .04 0 .1-.02.13v.04m-1.06.17v.01c0-.04 0-.02.02.07.03.03.11.04.18.03.06-.04.06-.08.16-.1.1 0 .14.04.2.07.07.02.1.04.14.1.02.06.04.1-.03.11a.47.47 0 01-.2.07c-.08 0-.14-.01-.18.03-.06.05-.05.08-.05.17-.02.03-.03.11-.04.14a.35.35 0 01-.16.03l-.06-.18c0-.06-.01-.14-.05-.18a.46.46 0 00-.12-.1.23.23 0 00-.11-.07c.07.03.08.07.09.14-.06.03-.08.05-.18.05-.1 0-.12-.03-.16-.08 0 .08-.04.1-.06.17l-.09.16c.02.08.05.08.06.17.02.06.02.12.07.16.02.02.04.03.09.03a.44.44 0 01-.23-.05l-.15-.1a.74.74 0 00-.21-.09c-.08 0-.14 0-.18.04a.28.28 0 00-.1.15c-.03.08-.03.14 0 .2.04.05.05.07 0 .15-.03.05-.1.05-.19.08a.7.7 0 01-.18-.04"/>
                <path d="M12.13 7.1C14.3 3.4 15.76.24 15.37.06c-.4-.18-2.5 2.68-4.69 6.39l1.45.65z" fill="#FFF"/>
                <path d="M11.98 7.04C14.1 3.46 15.54.44 15.23.3c-.32-.14-2.3 2.64-4.4 6.21" fill="#FFF"/>
                <path d="M11.62 5.17l-.8 1.34 1.16.53.8-1.35-1.16-.52z" fill="#FFF"/>
                <path d="M11.72 5.32c-.26.41-.44.73-.7 1.18l.86.39.7-1.18-.86-.4z" fill="#FFF"/>
                <path fill="#FFF" fill-rule="nonzero" d="M12.32 5.82l-.56-.31-.48.88.56.3z"/>
                <path d="M12.35 5.8l-1.1.6m.58.27l-.06-1.13m3.19-4.16l-.58-.26" fill="#FFF"/>
                <circle fill="#DB161B" fill-rule="nonzero" transform="scale(-1 1) rotate(14.41 0 -116.87)" cx="14.87" cy=".86" r="1"/>
            </g>
            <path d="M7.77 5.6c0 3.19.02 4.4-.21 4.56-.22.17-6.26 0-6.26.9 0 .92 4.98 1.83 6.47 1.83 1.99 0 2.98-.9 2.98-2.73V5.59H7.77z" fill="#FFF"/>
            <path d="M7.75 6.38v.4c1 .13 2 .13 3 0v-.4c-1 .14-2 .14-3 0zm0-.79V6c1 .13 2 .13 3 0v-.4c-1 .13-2 .13-3 0z" fill="#FFF"/>
            <path d="M7.75 6.02v.4c1 .13 2 .13 3 0v-.4c-1 .13-2 .13-3 0zm0 .8v.4c1 .12 2 .12 3 0v-.4c-1 .13-2 .13-3 0z" fill="#FFF"/>
            <circle fill="#FFF" fill-rule="nonzero" cx="8" cy="6.58" r="1"/>
            <circle fill="#FFF" fill-rule="nonzero" cx="8.43" cy="6.58" r="1"/>
            <circle fill="#FFF" fill-rule="nonzero" cx="9.29" cy="6.58" r="1"/>
            <circle fill="#FFF" fill-rule="nonzero" cx="9.71" cy="6.58" r="1"/>
            <circle fill="#FFF" fill-rule="nonzero" cx="10.14" cy="6.58" r="1"/>
            <circle fill="#FFF" fill-rule="nonzero" cx="10.57" cy="6.58" r="1"/>
            <path d="M7.65 7.75l3 2.5m-2.7-2.5l2.7 2.23m-2.3-2.14l2.3 1.86m-2-1.86l2 1.58m-1.7-1.58l1.7 1.3m-1.4-1.3l1.4 1.02m-1.1-1.02l1.1.74m-.8-.74l.8.56m-.5-.56l.5.37m-.2-.37l.2.18m-3 0l3 2.52m0-2.8l-3.3 2.8m3-2.8l-2.9 2.42m2.5-2.32L7.65 9.7m2-1.86l-2 1.58m1.7-1.58l-1.7 1.3m1.4-1.3l-1.4 1.02m1.1-1.02l-1.1.74m.8-.74l-.8.56m.5-.56l-.5.37m.2-.37l-.2.18m3 0l-3.3 2.8m3.3-2.52l-3.3 2.8m3.3-2.52l-3.3 2.8m3.3-2.52l-3.3 2.8m3.3-2.52l-3.3 2.8m3.3-2.52l-3.3 2.79m3.3-2.51l-3.3 2.79m3.3-2.51l-3.3 2.79m3.3-2.51l-3.1 2.6m3.1-2.32l-2.8 2.32m2.7-1.95l-2.2 1.86m2.1-1.49l-1.8 1.49m1.6-1.03l-.9.75M7.65 8.3l2.9 2.42m-2.9-2.14l2.9 2.42m-2.9-2.14l2.8 2.33m-2.8-2.05l2.8 2.33m-2.8-2.05l2.7 2.23m-2.8-2.04l2.7 2.23m-2.7-1.96l2.5 2.05m-2.6-1.86l2.5 2.05m-2.6-1.86l2.4 1.95m-2.4-1.67l2.3 1.86m-2.3-1.59l2 1.68M7.63 7.31v.47c1.04.15 2.08.15 3.12 0V7.3c-1.04.15-2.08.15-3.12 0zm-.31 3.82l1.87 1.49-1.87-1.5zm0 .28l1.66 1.3-1.66-1.3zm0 .27l1.45 1.12-1.45-1.12zm0 .28l1.04.84-1.04-.84zm0 .28l.83.65-.83-.65zm0 .28l.52.37-.52-.37z" fill="#FFF"/>
            <circle fill="#FFF" fill-rule="nonzero" cx="8" cy="7.86" r="1"/>
            <circle fill="#FFF" fill-rule="nonzero" cx="8.43" cy="7.86" r="1"/>
            <circle fill="#FFF" fill-rule="nonzero" cx="9.29" cy="7.86" r="1"/>
            <circle fill="#FFF" fill-rule="nonzero" cx="9.71" cy="7.86" r="1"/>
            <circle fill="#FFF" fill-rule="nonzero" cx="10.14" cy="7.86" r="1"/>
            <circle fill="#FFF" fill-rule="nonzero" cx="10.57" cy="7.86" r="1"/>
            <path d="M3.27 12.24l3.67-1.92m-3.87 1.82l3.46-1.82m-3.56 1.64l3.15-1.64m-3.26 1.46l2.75-1.46M2.66 11.6l2.55-1.28m-2.45 1l1.73-.9m-1.83.72L4 10.41m-1.33.46l.92-.46m0 1.92l3.46-1.83m-3.16 1.92l3.26-1.73M4.2 12.5l3.05-1.64M4.5 12.6l2.55-1.37M4.9 12.6l2.24-1.19M5.21 12.7l1.93-1m-1.63 1.1l1.53-.83m-1.12.82l1.22-.64m-.81.73l.81-.45m-.4.45l.5-.27m.51-2.29h-.51a6.6 6.6 0 000 2.57h.5a6.55 6.55 0 010-2.57zm-6.02 1.2l1.23-.86-1.23.86zm0-.6l1.23 1.03-1.23-1.03zm1.72-.6l-.74.08c-.16.52-.16.95 0 1.47l.74.17a3.07 3.07 0 010-1.72zm7.3-4.72v-.4c-.45 0-.75-.23-.75-.47H8.5c0 .24-.3.47-.75.47v.4h3z" fill="#FFF"/>
            <path d="M8.6 4.16h1.3v.57H8.6v-.57zm.11-.57H9.8v.57H8.7v-.57zm0-.58H9.8v.58H8.7V3z" fill="#FFF" fill-rule="nonzero"/>
            <path fill="#FFF" fill-rule="nonzero" d="M9.04 2.58h.85v.86h-.85zm-.44-.85h.86v.5h-.85z"/>
            <ellipse fill="#FFF" fill-rule="nonzero" cx="9.09" cy="1.11" rx="1.66" ry="1.11"/>
            <path d="M9.6 1.25c0 .24.3.63.3.63-.21.16-.55.27-.86.27-.32 0-.71-.06-.86-.27 0 0 .28-.4.28-.63 0-.24-.28-.54-.28-.54.2-.16.54-.27.86-.27.31 0 .65.11.85.27 0 0-.28.3-.28.54z" fill="#FFF"/>
            <path d="M9.62 1.25c0 .24.27.72.27.72-.2.16-.34.18-.64.18s-.5.03-.64-.18c0 0 .27-.48.27-.72S8.61.62 8.61.62c.2-.16.34-.18.64-.18s.44.02.64.18c0 0-.27.4-.27.63z" fill="#FFF"/>
            <circle fill="#FFF" fill-rule="nonzero" cx="8" cy="1.12" r="1"/>
            <circle fill="#FFF" fill-rule="nonzero" cx="10.57" cy="1.12" r="1"/>
            <circle fill="#FFF" fill-rule="nonzero" cx="9.29" cy="1.12" r="1"/>
            <circle fill="#FFF" fill-rule="nonzero" cx="9.29" cy=".26" r="1"/>
            <circle fill="#FFF" fill-rule="nonzero" cx="8.61" cy="5.41" r="1"/>
            <circle fill="#FFF" fill-rule="nonzero" cx="10.32" cy="5.41" r="1"/>
            <path fill="#FFF" d="M8.6 4.73h1.72l-.85.86z"/>
            <circle fill="#FFF" fill-rule="nonzero" cx="9.46" cy="5.59" r="1"/>
            <rect fill="#FFF" fill-rule="nonzero" x="7.75" y="8.17" width="2.15" height="1" rx=".5"/>
            <path d="M10.28 7.84c-.27 0-.48.24-.48.53v.46c0 .29.21.53.48.53.26 0 .47-.24.47-.53v-.46c0-.3-.2-.53-.47-.53zm0 .2c-.16 0-.3.2-.3.43v.26c0 .24.14.42.3.42.15 0 .28-.18.28-.42v-.26c0-.24-.13-.43-.28-.43zm-2.49-.1c-.15 0-.28.19-.28.42v.47c0 .24.13.43.28.43.16 0 .29-.2.29-.43v-.47c0-.23-.13-.42-.29-.42zm0-.2c-.26 0-.47.23-.47.53v.66c0 .3.21.53.47.53.27 0 .48-.24.48-.53v-.66c0-.3-.21-.53-.48-.53z" fill="#FFF"/>
            <path d="M7.32 7.93c-.15 0-.26.18-.26.4v.1c0 .23.11.4.26.4.14 0 .25-.17.25-.4v-.1c0-.22-.11-.4-.25-.4zm0-.2c-.24 0-.43.23-.43.51v.29c0 .27.19.5.43.5.23 0 .43-.23.43-.5v-.29c0-.28-.2-.5-.43-.5z" fill="#FFF"/>
            <path d="M6.05 7.93c-.3 0-.53.18-.53.4v.45c0 .22.24.4.53.4.3 0 .53-.18.53-.4v-.45c0-.22-.23-.4-.53-.4zm0-.2c-.49 0-.88.23-.88.51v.63c0 .28.4.5.88.5.5 0 .89-.22.89-.5v-.63c0-.28-.4-.5-.89-.5zm6.4.29c-.3 0-.54.18-.54.4v.44c0 .23.24.4.54.4.29 0 .53-.17.53-.4v-.44c0-.22-.24-.4-.53-.4zm0-.2c-.5 0-.89.23-.89.5v.64c0 .27.4.5.89.5s.88-.23.88-.5v-.63c0-.28-.4-.5-.88-.5z" fill="#FFF"/>
            <rect fill="#FFF" fill-rule="nonzero" x="10.75" y="8.17" width="1.29" height="1" rx=".5"/>
            <rect fill="#FFF" fill-rule="nonzero" x="9.89" y="8.17" width="1" height="1" rx=".38"/>
            <rect fill="#FFF" fill-rule="nonzero" x="6.46" y="8.17" width="1" height="1" rx=".38"/>
            <rect fill="#FFF" fill-rule="nonzero" x="4.31" y="8.17" width="1.29" height="1" rx=".5"/>
            <rect fill="#FFF" fill-rule="nonzero" x="12.9" y="8.17" width="1.29" height="1" rx=".5"/>
        </g>
    </g>
</svg>
