<svg width="16" height="11" fill="none" xmlns="http://www.w3.org/2000/svg"><g clip-path="url(#a)"><path d="M0 0h16v11H0V0Z" fill="#000"/><path d="M0 0h16v7.33H0V0Z" fill="#fff"/><path d="M0 0h16v3.67H0V0Z" fill="#CE1126"/><path d="m8.01 5.54 1.22 1.17-.08-2.12c-.02-.32-.29-.24-.48-.13-.2.13-.43.13-.67.05-.24.08-.47.08-.67-.05-.2-.11-.46-.19-.48.13l-.08 2.12L8 5.54Z" fill="#fff"/><path fill-rule="evenodd" clip-rule="evenodd" d="M9.16 4.6a.3.3 0 0 0-.06-.19ZM8 5.55l1.21 1.16h.02v-.01l-.08-2.12M8 5.56 6.78 6.72h-.02v-.01l.08-2.12a.3.3 0 0 1 .06-.18.17.17 0 0 1 .12-.06c.1 0 .22.04.32.1.2.13.42.13.66.04.24.1.46.09.66-.04a.6.6 0 0 1 .32-.1c.04 0 .09.02.12.06m-.43.06c.1-.06.21-.1.3-.1.05 0 .09.02.11.06.03.03.05.08.05.16l.09 2.1-1.2-1.15h-.01L6.78 6.68l.09-2.09c0-.08.02-.13.05-.16a.15.15 0 0 1 .1-.06c.1 0 .21.04.3.1.21.13.44.13.68.05.24.08.47.08.67-.05Z" fill="#C09300"/><path d="M7 4.52 6.9 6.58l-.14.13.08-2.12A.42.42 0 0 1 7 4.52Zm.17.15-.08 1.72-.14.15.09-1.99.13.12Zm.15.13-.05 1.43-.12.12.07-1.64.1.09Zm.17.07L7.43 6.1l-.1.09.05-1.36c.03.01.08.04.11.04Zm.16 0L7.6 5.9l-.11.12.04-1.13h.12ZM9 4.52l.09 2.06.14.13-.08-2.12A.42.42 0 0 0 9 4.52Zm-.17.15.08 1.72.14.15-.09-1.99-.13.12Zm-.15.13.05 1.43.12.12-.07-1.64-.1.09Zm-.17.07.06 1.23.1.09-.05-1.36c-.03.01-.08.04-.11.04Zm-.16 0L8.4 5.9l.11.12-.04-1.13h-.12ZM8.06 5.78l.17.8-.06.06-.06-.05-.1-.71.05.71-.06.08-.06-.08.04-.71-.1.71-.05.05-.06-.06.17-.8h.12Z" fill="#C09300"/><path fill-rule="evenodd" clip-rule="evenodd" d="M7.94 5.77h.12l.18.81-.07.07-.07-.05-.06-.48.03.47-.07.1-.07-.1.03-.47-.06.48-.07.05-.07-.07.18-.81Zm.01.02-.17.79.05.04.05-.03.1-.72h.01l-.04.72.05.06.05-.06L8 5.88h.01l.1.7.05.04.05-.04-.17-.8h-.1Z" fill="#C09300"/><path d="m7.62 5.42-.34 1.25.46.07.2-.93-.32-.39Z" fill="#fff"/><path fill-rule="evenodd" clip-rule="evenodd" d="M7.61 5.42h.01l.33.38-.2.94s0 .01 0 0l-.47-.06h-.01v-.02l.34-1.24Zm.01.03-.33 1.2.45.08.2-.92-.32-.36Z" fill="#C09300"/><path fill-rule="evenodd" clip-rule="evenodd" d="m7.77 5.74-.22.22a.01.01 0 0 1-.01 0l-.05-.1.03-.02.03.09.2-.2.02.01Z" fill="#C09300"/><path fill-rule="evenodd" clip-rule="evenodd" d="m7.7 6.04-.05-.45h.02L7.7 6l.13-.17.01.01-.05.07.06.2.03-.03.01.01-.03.06v.03h-.02l-.1.15.05.24h-.02l-.05-.21-.09.14a.01.01 0 0 1-.02 0l-.05-.15-.08.15.05.17.07-.12s0-.01 0 0h.02l.05.18h-.02l-.05-.15-.07.13h-.02l-.05-.2-.08.12-.02-.01.1-.13-.08-.28.15-.16h.02l.04.15.09-.13h.02l.03.23.1-.16-.06-.2-.07.1-.02-.01Zm-.22.43-.07-.24.13-.14.04.15h.02l.09-.12.04.21-.1.15-.04-.16h-.02l-.1.15Z" fill="#C09300"/><path d="m8.38 5.42.34 1.25-.47.07-.2-.93.33-.39Z" fill="#fff"/><path fill-rule="evenodd" clip-rule="evenodd" d="M8.39 5.42h-.01l-.33.38.2.94s0 .01 0 0l.47-.06h.01v-.02L8.4 5.42Zm-.01.03.33 1.2-.45.08-.2-.92.32-.36Z" fill="#C09300"/><path fill-rule="evenodd" clip-rule="evenodd" d="m8.23 5.74.22.22a.01.01 0 0 0 .01 0l.05-.1-.03-.02-.03.09-.2-.2-.02.01Z" fill="#C09300"/><path fill-rule="evenodd" clip-rule="evenodd" d="m8.3 6.04.05-.45h-.02L8.3 6l-.13-.17-.01.01.05.07-.06.2-.03-.03-.01.01.03.06v.03h.02l.1.15-.05.24h.02l.05-.21.09.14a.01.01 0 0 0 .02 0l.05-.15.08.15-.05.17-.07-.12s0-.01 0 0h-.02l-.05.18h.02l.05-.15.07.13h.02l.05-.2.08.12.02-.01-.1-.13.08-.28-.15-.16h-.02l-.04.15-.09-.13h-.02l-.04.23-.1-.16.07-.2.07.1.02-.01Zm.22.43.07-.24-.13-.14-.04.15H8.4l-.09-.12-.04.21.1.15.04-.16h.02l.1.15Z" fill="#C09300"/><path d="M8 7.22c.35 0 .7-.03.9-.09.08-.01.08-.06.08-.12.08-.02.04-.13.1-.13-.06.02-.08-.1-.15-.08 0-.1-.1-.12-.18-.09-.17.06-.47.07-.75.07-.28-.01-.58-.01-.75-.07-.08-.03-.18-.02-.18.09-.07-.02-.09.1-.15.08.06 0 .02.1.1.13 0 .06 0 .1.09.12.2.06.54.09.89.09Z" fill="#fff"/><path fill-rule="evenodd" clip-rule="evenodd" d="M7.12 6.68c.04-.01.1 0 .14 0 .08.04.2.05.32.06a8.99 8.99 0 0 0 .84 0c.13 0 .24-.02.32-.05.05-.02.1-.02.14 0a.1.1 0 0 1 .07.08L9 6.8l.04.04.02.03h.03l.02.02c0 .01 0 .02-.02.02h-.01v.01l-.01.03-.02.05a.1.1 0 0 1-.04.04c0 .02 0 .05-.02.07-.01.03-.04.05-.08.05-.2.06-.55.1-.9.1s-.7-.04-.9-.1c-.04 0-.07-.02-.08-.05A.15.15 0 0 1 7 7.03a.1.1 0 0 1-.04-.04.16.16 0 0 1-.02-.05V6.9h-.02a.02.02 0 0 1-.02-.03l.02-.02h.02c.02 0 .02-.02.03-.03a.18.18 0 0 1 .04-.04l.04-.02c0-.02 0-.03.02-.05a.1.1 0 0 1 .05-.04Zm-.15.21.01.04.02.04c0 .01.01.02.03.02l.01.02.01.07.06.03c.2.06.54.09.89.09a3.63 3.63 0 0 0 .95-.12v-.07L8.98 7c.02 0 .03-.01.03-.02a.12.12 0 0 0 .02-.04v-.04L9 6.86a.14.14 0 0 0-.03-.04h-.05V6.8c0-.03-.01-.04-.02-.05a.07.07 0 0 0-.03-.03.18.18 0 0 0-.11.01m-1.79.16A.2.2 0 0 0 7 6.86a.14.14 0 0 1 .03-.04h.05V6.8c0-.03.01-.04.02-.05l.03-.03.11.01c.1.03.21.04.34.05l.27.02a17.7 17.7 0 0 1 .15 0 5.39 5.39 0 0 0 .76-.07" fill="#C09300"/><path d="M7.52 6.66c.11.02.24.03.34.02.06 0 .1.1-.02.12-.1.01-.25 0-.33-.02a3.9 3.9 0 0 1-.33-.07c-.1-.05-.03-.13.03-.12.08.03.2.06.3.07Zm.96 0c-.11.02-.24.03-.34.02-.06 0-.1.1.02.12.1.01.25 0 .33-.02l.33-.07c.1-.05.03-.13-.03-.12-.08.03-.2.06-.3.07Z" fill="#fff"/><path fill-rule="evenodd" clip-rule="evenodd" d="m7.18 6.7-.04-.03v-.04l.03-.02h.03a1.84 1.84 0 0 0 .66.08c.02 0 .04.02.04.04v.03l-.06.02c-.1.02-.25 0-.33-.01a3.9 3.9 0 0 1-.33-.07Zm.34-.05a1.81 1.81 0 0 1-.31-.07h-.05a.08.08 0 0 0-.04.04v.06l.05.04.33.07c.09.02.24.03.35.02a.1.1 0 0 0 .06-.03.06.06 0 0 0 .02-.05c0-.03-.04-.06-.07-.06-.1.01-.23 0-.34-.02Zm1.36.03-.05.04-.33.07c-.09.02-.24.03-.35.02a.1.1 0 0 1-.06-.03.06.06 0 0 1-.02-.05.07.07 0 0 1 .07-.06 1.81 1.81 0 0 0 .65-.09h.05l.04.04v.06ZM8.8 6.6h.03l.03.03v.04l-.04.03-.33.07a1.3 1.3 0 0 1-.33.01c-.03 0-.05 0-.05-.02-.01 0-.02-.02-.01-.03 0-.02.02-.04.04-.04.1.02.23 0 .34-.01l.32-.08Z" fill="#C09300"/><path d="M7.17 6.6c-.1 0-.13.1-.1.15 0-.03.07-.03.08-.06.02-.04-.01-.04.02-.08Zm.34.28c0-.06.05-.05.05-.11 0-.03-.01-.08-.04-.08s-.06.03-.06.06c-.01.06.05.07.05.13Zm.4-.17c.08 0 .07.12.03.17 0-.04-.07-.05-.07-.08 0-.05.07-.05.04-.09Zm.92-.1c.1-.02.13.08.1.14 0-.03-.07-.03-.08-.06-.02-.04.01-.04-.02-.08Zm-.34.27c0-.06-.05-.05-.05-.11 0-.03.01-.08.04-.08s.06.03.06.06c.01.06-.05.07-.05.13Zm-.4-.17c-.08 0-.07.12-.03.17 0-.04.07-.05.07-.08 0-.05-.07-.05-.04-.09Z" fill="#fff"/><path fill-rule="evenodd" clip-rule="evenodd" d="M7.06 6.65a.1.1 0 0 1 .1-.05h.02v.01l-.02.02v.04a.1.1 0 0 1 0 .03l-.02.02-.03.01-.02.01-.01.02h-.02a.12.12 0 0 1 0-.11Zm.01.08.01-.07a.07.07 0 0 1 .07-.04.06.06 0 0 0 0 .04l-.01.03-.01.01-.03.01-.02.01Zm1.78-.11v.05l.01.02.01.01.03.01.02.01a.1.1 0 0 0 0-.06.07.07 0 0 0-.07-.04Zm.09.03c.02.03.02.07 0 .1v.01h-.02v-.02h-.03l-.03-.02a.05.05 0 0 1-.02-.02.1.1 0 0 1 0-.05v-.02l-.02-.02.01-.01a.1.1 0 0 1 .1.05Zm-1.47.05a.07.07 0 0 1 .05-.02c.02 0 .03.02.04.03l.01.06v.04l-.03.02-.02.02v.03h-.03c0-.03 0-.04-.02-.06l-.02-.03v-.04l.02-.05Zm.04.13.02-.02.01-.02.01-.02a.1.1 0 0 0-.01-.04c0-.02-.01-.02-.02-.02l-.03.01-.02.03v.03l.02.03.02.02Zm.95-.1a.1.1 0 0 0-.01.04v.02l.02.02.02.02a.17.17 0 0 1 .02-.02l.02-.03v-.03s0-.02-.02-.03l-.03-.01-.02.02Zm.05.15c0-.03 0-.04.02-.06l.02-.03v-.04l-.02-.05a.07.07 0 0 0-.05-.02c-.02 0-.03.02-.04.03l-.01.06v.04l.03.02.02.02v.03h.03ZM7.9 6.7c.03 0 .05 0 .06.02a.1.1 0 0 1 .02.05c0 .04 0 .09-.03.12h-.01l-.02-.03-.02-.02-.02-.01-.02-.03c0-.03.02-.04.03-.05l.01-.02V6.7Zm.03.02.02.02.01.04-.01.08v-.01l-.04-.02-.02-.02V6.8l.01-.04.03-.02v-.02Zm.1 0a.07.07 0 0 1 .06-.02h.01v.04c.02.02.04.03.04.06m-.1-.08a.1.1 0 0 0-.02.05Zm-.02.05c0 .04 0 .09.03.12Zm.03.09a.16.16 0 0 1-.01-.08l.01-.04.02-.02v.02l.02.02c.02.01.03.02.03.04H8.1l-.02.02a.15.15 0 0 0-.04.04Zm.03 0-.01.02-.01.01h-.01m.03-.03.02-.02Zm.02-.02Zm0 0 .02-.01Zm.02-.01.02-.03Z" fill="#C09300"/><path d="M7.2 6.64c.02 0 .07 0 .08.03l-.09-.03Zm.13.04a.3.3 0 0 1 .1.03l-.1-.03Zm.51.06-.1.01.1-.01Zm-.15 0c-.02-.02-.07-.02-.1 0h.1Zm1.12-.1c-.03 0-.07 0-.09.03l.09-.03Zm-.14.04a.3.3 0 0 0-.1.03l.1-.03Zm-.51.06.1.01-.1-.01Zm.15 0c.02-.02.07-.02.1 0h-.1Z" fill="#fff"/><path fill-rule="evenodd" clip-rule="evenodd" d="m7.2 6.64.08.03v-.01l-.01-.01-.03-.01-.05-.01v.01Zm1.56 0 .05-.01v.01l-.09.03v-.01l.04-.02Zm-.09.04-.1.04h-.01V6.7l.06-.02h.05Zm-1.34 0 .1.04h.01V6.7a.27.27 0 0 0-.06-.02h-.05Zm.34.04.02.01v.01h-.1c.01-.02.03-.02.05-.02h.03Zm.74.03v-.02a.13.13 0 0 0-.05-.01h-.03l-.02.01v.02h.1Zm-.26-.02a.66.66 0 0 1 .09 0l.02.02v.01l-.1-.01h-.01v-.02Zm-.3 0v.01l-.1.02h-.01v-.01l.02-.01h.03l.05-.01Z" fill="#C09300"/><path d="m7.17 6.87-.01-.02.02-.02.01.02v.01h-.02Zm.98.07-.01-.01.01-.02h.02v.03h-.02Zm0 .04v-.03h.01l.02.02-.01.01h-.02Zm-.9-.2-.02.01h-.04s-.02 0-.02.02l.02.01c.01-.01.03-.02.03 0l-.01.04v.03h-.03c-.01 0-.02 0-.03.02l-.02.03c0 .02.02.02.03.02l.04.01.05.02.09.02c.02 0 .03 0 .03-.02l.01-.06V6.9l-.03.02c-.02 0-.01.02 0 .02l-.01.03H7.3c-.01 0-.03 0-.02-.02v-.03l.01-.04h-.02c-.01.01-.03.02-.02.03v.03c0 .01-.01.02-.03.01 0 0-.02 0-.01-.02V6.9l.02-.04v-.03l.02-.04h-.01Zm-.07.14c.01 0 .01 0 0 0v.01-.01ZM7.17 7v-.02h.02V7h-.02Zm.05.02A.02.02 0 0 1 7.2 7L7.22 7l.02.01v.01h-.02Zm1.58 0v-.01L8.81 7h.02v.03H8.8Zm-1.5.02c-.01 0-.02 0-.02-.02l.02-.01c.02 0 .02.02.01.02H7.3Zm.38.02V7l.01-.05v-.02l.01-.04s0-.02.01-.01l.02.02v.04l-.01.02v.07l-.01.02v.02h-.03Zm.53-.18-.02.02v.02l.01.03V7c0 .02-.01.01-.02.02l-.02.02v.05c0 .01 0 0 0 0h.14l.02-.02-.01-.04v-.04h-.02l-.02.01.01.02v.03h-.01c-.01.01-.03.02-.03 0v-.02l-.01-.05V6.9c0-.01 0-.02-.02-.02Zm-.01.15v.01h-.01v-.01Zm-.53-.17-.03.01v.13l-.02.05H7.6v-.02l-.02-.02c-.01 0-.02 0-.01-.02h.02c.02 0 .02-.02.01-.03l-.02-.03c0-.02-.01-.03-.03-.04l-.04.03-.02.01c-.01 0-.03.03-.01.04 0 0 .04 0 .02.02h-.03L7.44 7v-.04c0-.02-.03-.02-.03 0v.08l-.04.02s-.03 0-.02.01h.05c.01 0 .02 0 .03-.02h.08c0-.01.02-.03.03-.01 0 .02.01.02.02.02.02 0 .01.01.01.02 0 .02.02.03.03.04h.01c.02 0 .03-.01.04-.03v-.04l.01-.06.01-.06a.7.7 0 0 0 0-.04v-.01Zm-.12.08v.02c.01 0 .01 0 0 0h-.03l.01-.02h.02Zm1.17-.15h-.03c-.02 0-.03.02-.01.03.01.03.03 0 .04 0 .03 0 .03.03.04.06l.01.06c.02.02-.01.03-.03.01 0 0-.03-.02-.04 0-.02 0-.02.02-.03.03-.02 0-.03-.02-.04-.03 0-.02-.03-.02-.05-.02l-.01-.06c-.02 0-.04.03-.02.04.02.02-.01.03-.02.04l-.02.06c-.02 0-.02-.02-.03-.03 0-.03-.01-.02-.03-.01L8.42 7v.04c0 .02.02.01.03 0 .02 0 .02.02.01.03-.01.01-.04 0-.04.03h.03c.02 0 .04-.02.04-.04s.03-.02.05-.02c.02-.01.04-.01.04.01.02.02.04.03.06.01l.02-.04h.08c.01-.01.02-.03.04-.03l.1-.03c.02 0 0-.02-.02-.03-.01-.01-.03.03-.05 0-.02 0-.02-.03-.02-.05 0-.03 0-.05-.03-.07 0-.02-.02-.02-.04-.02Zm-.12.17c.02.01.02.02.02.03h-.03v-.02Zm.11.01h.02V7H8.7v-.02Zm-.15 0v.03L8.54 7v-.01h.02Zm-.1.03v.02h-.01V7Zm.16.02h.01v.01h-.02l.01-.01Zm-.3.09.01-.01.02-.03.01-.01v-.03l-.01-.02h-.02V7l.02-.03h.01l.01.02.01.03.01.01V7.1l-.03.01-.01.01h-.03Zm-.12 0h-.01V7.1h.05l.01-.01h.01l.01.01v.02h-.03v-.01l-.02.01H8.2Zm-.36-.16s-.02.01-.02.03v.04c0 .02-.01.02-.02.01L7.77 7l-.03.03.03.04c0 .02-.01.04-.03.04 0 .02-.02.01-.04.02l.02.01.05-.01.03-.04h.09c.01.01.04 0 .05.02 0 .02.01.03.03.04L8 7.13c.01 0 0-.03.02-.04h.09V7h-.05c-.01.01-.03.03-.03.05 0 .02-.02 0-.02-.02v-.02h-.09L7.87 7c-.02 0-.01-.02-.02-.03Zm.04.07h.09l.01.01v.06l-.02-.01v-.03h-.09l-.02-.01.01-.02h.02Zm.2 0v.02h-.02l.02-.01Z" fill="#C09300"/><path d="m8.22 4.64-.02-.07c.03.04.15.05.15.05-.07-.04-.14-.28-.13-.48 0-.2-.03-.27-.06-.3-.03-.03-.15-.07-.22-.07-.04 0-.04.03-.04.03-.08-.02-.15-.03-.19 0-.03.02-.04.14-.02.12.06-.05.11 0 .15.05.03.04.03.17-.02.33-.04.16-.17.32-.17.32.07 0 .17-.06.17-.06l-.03.1c.08-.04.14-.1.14-.1l.07.08.07-.07s.06.06.15.07Z" fill="#fff"/><path fill-rule="evenodd" clip-rule="evenodd" d="M7.91 3.76h.03a.58.58 0 0 1 .19.05l.04.02m-.26-.07-.02.02Zm-.02.02Zm0 0a.54.54 0 0 0-.1 0H7.7a.07.07 0 0 0-.02.05.2.2 0 0 0-.01.04v.04l.01.02h.02a.08.08 0 0 1 .04-.02h.03l.06.06.02.05v.07a.87.87 0 0 1-.21.52l-.02.02h.03a.3.3 0 0 0 .11-.03l.04-.02-.02.1.02-.01a.58.58 0 0 0 .13-.09l.07.08v-.01a.52.52 0 0 1 .07-.07.23.23 0 0 0 .03.03c.03.02.07.04.12.04l.01-.01V4.6a.36.36 0 0 0 .1.02h.02m-.03-.02a.23.23 0 0 1-.03-.04 1 1 0 0 1-.08-.42c0-.2-.03-.26-.05-.29l-.04-.02a.56.56 0 0 0-.18-.05h-.02v.01a.02.02 0 0 0 0 .01v.02H7.9a.54.54 0 0 0-.11-.03c-.03 0-.06 0-.07.02l-.02.02a.18.18 0 0 0 0 .07.1.1 0 0 1 .04-.02l.04.01.07.07.02.05a.4.4 0 0 1 0 .08.89.89 0 0 1-.2.52c.03 0 .06-.02.08-.03a.59.59 0 0 0 .06-.03l.02-.02-.02.1a.59.59 0 0 0 .1-.07m0 0h.02l.07.07a.63.63 0 0 1 .06-.07h.02a.26.26 0 0 0 .13.07V4.6L8.2 4.6v-.01l.01-.01.03.01a.34.34 0 0 0 .08.02" fill="#C09300"/><path fill-rule="evenodd" clip-rule="evenodd" d="M7.98 4.16H8a1.32 1.32 0 0 1 0 .17 1.62 1.62 0 0 1-.06.24h-.02a1.6 1.6 0 0 0 .07-.4Zm-.06.01h.02a.48.48 0 0 1 0 .05 2.1 2.1 0 0 1-.06.25.32.32 0 0 1-.05.1l-.02-.02a.3.3 0 0 0 .05-.1 1.15 1.15 0 0 0 .06-.28Zm.12 0h.02v.01a2.66 2.66 0 0 0 .02.38l-.02.01v-.03l-.01-.06a3.24 3.24 0 0 1-.01-.3Zm.07.02h.02v.01a1.78 1.78 0 0 0 .04.27l.04.1-.02.01a.38.38 0 0 1-.04-.1 1.17 1.17 0 0 1-.04-.28Z" fill="#C09300"/><path d="M7.86 4.03a.15.15 0 0 0-.02-.06c-.04-.06-.09-.1-.15-.05 0 0 .02-.07.07-.07.03 0 .1.03.17.14h-.06c-.02.02-.01.04-.01.04Zm-.17-.2.02-.03c.04-.03.11-.02.2 0 0 0-.01-.03.03-.03.07 0 .19.04.22.07l.03.05c-.02-.03-.07-.03-.08-.03l-.06.01s-.03 0-.04.02c0 0 0 .03-.02.03l-.02-.01-.02-.02c-.02 0-.05-.01-.09-.05-.04-.03-.06-.04-.1-.03-.06 0-.07.03-.07.03Z" fill="#C09300"/><path fill-rule="evenodd" clip-rule="evenodd" d="M7.9 3.8a.55.55 0 0 0-.11-.01l-.08.01-.01.02a.1.1 0 0 1 .05-.02h.06l.05.04a.3.3 0 0 0 .05.04h.04l.01.01v.01h.01v.01H8V3.9a.2.2 0 0 1 .01-.02h.02l.02-.01m-.11-.1h-.02l-.01.02a.03.03 0 0 0 0 .01m-.23.04.01-.03.02-.01c.02-.02.05-.02.08-.02s.07 0 .11.02v-.02h.01l.03-.01a.57.57 0 0 1 .19.04l.04.03.02.05-.04-.02H8.1a.24.24 0 0 0-.06.01h-.02v.02H8a.2.2 0 0 1-.01.02h-.03V3.9a.06.06 0 0 1-.01-.01s0-.01 0 0l-.05-.02a.3.3 0 0 1-.05-.03.17.17 0 0 0-.05-.04h-.06a.1.1 0 0 0-.05.02.06.06 0 0 0-.01.01Zm.25.15c-.07-.11-.14-.14-.17-.14-.02 0-.04.02-.05.04v.02c0-.01.01-.02.03-.02h.04l.06.07.02.04.01-.01h.06Zm0 0a.25.25 0 0 0-.04 0h-.01c-.02.01-.02.02-.02.03 0-.03-.01-.04-.02-.05a.17.17 0 0 0-.07-.06l-.03-.01c-.02 0-.03 0-.04.02h-.01a.23.23 0 0 1 0-.02l.02-.02c0-.02.02-.03.05-.03.03 0 .1.02.18.14Z" fill="#C09300"/><path d="M7.98 3.88c.01 0 .02 0 .02-.02 0-.01 0-.02-.02-.02a.02.02 0 0 0-.02.02c0 .01 0 .02.02.02ZM8 6c.58-.46.53-1.14.53-1.14h-.05c-.12 0-.4-.06-.47-.15-.08.08-.37.16-.5.16h-.04S7.42 5.53 8 6Z" fill="#fff"/><path fill-rule="evenodd" clip-rule="evenodd" d="m8 4.69.01.01.09.06.13.05.25.05a.2.2 0 0 0 .05 0h.01-.01.01a.5.5 0 0 1 0 .03v.09c0 .07-.02.17-.05.28-.06.23-.2.52-.48.75H8a1.4 1.4 0 0 1-.54-1.14h.01-.01v-.02h.01a.2.2 0 0 0 .04 0A1.03 1.03 0 0 0 8 4.7v-.01Zm-.52.19a.72.72 0 0 0 0 .1c0 .07.02.16.05.28.06.22.19.5.47.73a1.38 1.38 0 0 0 .52-1.11h-.04a1.03 1.03 0 0 1-.4-.1.29.29 0 0 1-.08-.06.34.34 0 0 1-.08.06l-.14.05a1.05 1.05 0 0 1-.3.05Z" fill="#C09300"/><path fill-rule="evenodd" clip-rule="evenodd" d="M8 4.76a.98.98 0 0 0 .46.14h.03V5c0 .09-.02.18-.05.27-.07.27-.22.5-.44.68a1.31 1.31 0 0 1-.5-1.03h.03c.05 0 .15-.02.24-.05.09-.02.18-.06.23-.1Zm-.23.12a1 1 0 0 1-.25.04V5l.05.26c.07.27.22.5.43.68a1.3 1.3 0 0 0 .48-1h-.01A1 1 0 0 1 8 4.77a.79.79 0 0 1-.23.1Z" fill="#C09300"/><mask id="b" style="mask-type:luminance" maskUnits="userSpaceOnUse" x="7" y="4" width="2" height="2"><path d="M8.48 4.92h-.02A.92.92 0 0 1 8 4.77a1.04 1.04 0 0 1-.48.15v.07c0 .1.02.18.05.27.07.27.22.5.43.67a1.3 1.3 0 0 0 .48-1.01Z" fill="#fff"/></mask><g mask="url(#b)"><path d="M7.51 4.76h.33v1.18H7.5V4.76Z" fill="#C09300"/><path fill-rule="evenodd" clip-rule="evenodd" d="M7.84 4.76h.32v1.18h-.32V4.76Z" fill="#fff"/><path fill-rule="evenodd" clip-rule="evenodd" d="M8.16 4.76h.33v1.18h-.33V4.76Z" fill="#C09300"/></g></g><defs><clipPath id="a"><path fill="#fff" d="M0 0h16v11H0z"/></clipPath></defs></svg>